<?xml version="1.0" encoding="UTF-8"?>
<svg xmlns="http://www.w3.org/2000/svg" xmlns:xlink="http://www.w3.org/1999/xlink" width="76px" height="30px" viewBox="0 0 75 30" version="1.1">
<g id="surface1">
<path style=" stroke:none;fill-rule:nonzero;fill:rgb(16.078431%,16.078431%,16.078431%);fill-opacity:1;" d="M 65.019531 9.039062 L 60.609375 25.996094 L 60.601562 26.035156 L 64.035156 26.035156 L 68.460938 9.039062 Z M 65.019531 9.039062 "/>
<path style=" stroke:none;fill-rule:nonzero;fill:rgb(16.078431%,16.078431%,16.078431%);fill-opacity:1;" d="M 10.449219 18.691406 C 9.933594 18.945312 9.367188 19.078125 8.792969 19.074219 C 7.554688 19.074219 6.855469 18.875 6.777344 17.871094 L 6.777344 17.800781 C 6.777344 17.761719 6.773438 17.726562 6.773438 17.679688 L 6.773438 14.746094 L 6.777344 14.402344 L 6.777344 12.335938 L 6.773438 12.335938 L 6.773438 11.457031 L 6.777344 11.105469 L 6.777344 9.113281 L 3.710938 9.519531 C 5.785156 9.113281 6.976562 7.460938 6.976562 5.8125 L 6.976562 4.796875 L 3.527344 4.796875 L 3.527344 9.546875 L 3.332031 9.601562 L 3.332031 18.394531 C 3.445312 20.863281 5.0625 22.332031 7.714844 22.332031 C 8.652344 22.332031 9.683594 22.117188 10.472656 21.757812 L 10.492188 21.75 L 10.492188 18.664062 Z M 10.449219 18.691406 "/>
<path style=" stroke:none;fill-rule:nonzero;fill:rgb(16.078431%,16.078431%,16.078431%);fill-opacity:1;" d="M 10.992188 8.398438 L 1.316406 9.902344 L 1.316406 12.371094 L 10.992188 10.871094 Z M 10.992188 8.398438 "/>
<path style=" stroke:none;fill-rule:nonzero;fill:rgb(16.078431%,16.078431%,16.078431%);fill-opacity:1;" d="M 10.992188 12.015625 L 1.316406 13.515625 L 1.316406 15.875 L 10.992188 14.375 Z M 10.992188 12.015625 "/>
<path style=" stroke:none;fill-rule:nonzero;fill:rgb(16.078431%,16.078431%,16.078431%);fill-opacity:1;" d="M 21.851562 13.152344 C 21.714844 10.40625 20.011719 8.78125 17.234375 8.78125 C 15.640625 8.78125 14.324219 9.398438 13.433594 10.574219 C 12.539062 11.75 12.074219 13.46875 12.074219 15.554688 C 12.074219 17.644531 12.542969 19.367188 13.433594 20.535156 C 14.324219 21.707031 15.640625 22.332031 17.234375 22.332031 C 20.011719 22.332031 21.714844 20.695312 21.851562 17.9375 L 21.851562 22.074219 L 25.292969 22.074219 L 25.292969 9.070312 L 21.851562 9.605469 Z M 22.03125 15.558594 C 22.03125 17.988281 20.761719 19.558594 18.800781 19.558594 C 16.78125 19.558594 15.570312 18.0625 15.570312 15.558594 C 15.570312 13.039062 16.777344 11.53125 18.796875 11.53125 C 19.78125 11.53125 20.601562 11.917969 21.175781 12.644531 C 21.730469 13.359375 22.027344 14.363281 22.027344 15.554688 Z M 22.03125 15.558594 "/>
<path style=" stroke:none;fill-rule:nonzero;fill:rgb(16.078431%,16.078431%,16.078431%);fill-opacity:1;" d="M 35.351562 8.78125 C 32.574219 8.78125 30.871094 10.40625 30.734375 13.15625 L 30.734375 5.28125 L 27.289062 5.820312 L 27.289062 22.074219 L 30.734375 22.074219 L 30.734375 17.9375 C 30.871094 20.699219 32.574219 22.335938 35.351562 22.335938 C 38.597656 22.335938 40.539062 19.800781 40.539062 15.558594 C 40.539062 11.316406 38.597656 8.78125 35.351562 8.78125 Z M 33.785156 19.558594 C 31.824219 19.558594 30.554688 17.988281 30.554688 15.554688 C 30.554688 14.363281 30.851562 13.359375 31.410156 12.644531 C 31.980469 11.914062 32.800781 11.527344 33.785156 11.527344 C 35.804688 11.527344 37.011719 13.035156 37.011719 15.554688 C 37.011719 18.0625 35.804688 19.558594 33.785156 19.558594 Z M 33.785156 19.558594 "/>
<path style=" stroke:none;fill-rule:nonzero;fill:rgb(16.078431%,16.078431%,16.078431%);fill-opacity:1;" d="M 49.925781 8.78125 C 47.148438 8.78125 45.445312 10.40625 45.308594 13.15625 L 45.308594 5.28125 L 41.863281 5.820312 L 41.863281 22.074219 L 45.308594 22.074219 L 45.308594 17.9375 C 45.445312 20.699219 47.148438 22.335938 49.925781 22.335938 C 53.171875 22.335938 55.113281 19.800781 55.113281 15.558594 C 55.113281 11.316406 53.171875 8.78125 49.925781 8.78125 Z M 48.359375 19.558594 C 46.398438 19.558594 45.132812 17.988281 45.132812 15.554688 C 45.132812 14.363281 45.425781 13.359375 45.984375 12.644531 C 46.554688 11.914062 47.375 11.527344 48.359375 11.527344 C 50.378906 11.527344 51.589844 13.035156 51.589844 15.554688 C 51.589844 18.0625 50.382812 19.558594 48.359375 19.558594 Z M 48.359375 19.558594 "/>
<path style=" stroke:none;fill-rule:nonzero;fill:rgb(16.078431%,16.078431%,16.078431%);fill-opacity:1;" d="M 55.121094 9.039062 L 58.800781 9.039062 L 61.792969 22.050781 L 58.492188 22.050781 Z M 55.121094 9.039062 "/>
</g>
</svg>
