<?xml version="1.0" encoding="UTF-8"?>
<svg xmlns="http://www.w3.org/2000/svg" xmlns:xlink="http://www.w3.org/1999/xlink" width="56px" height="8px" viewBox="0 0 55 8" version="1.1">
<g id="surface1">
<path style=" stroke:none;fill-rule:nonzero;fill:rgb(16.078431%,21.960784%,25.490196%);fill-opacity:1;" d="M 30.464844 7.757812 C 30.433594 7.757812 30.40625 7.730469 30.40625 7.699219 L 30.40625 0.300781 C 30.40625 0.269531 30.433594 0.242188 30.464844 0.242188 C 30.5 0.242188 30.527344 0.269531 30.527344 0.300781 L 30.527344 7.695312 C 30.527344 7.730469 30.5 7.757812 30.464844 7.757812 Z M 30.464844 7.757812 "/>
<path style=" stroke:none;fill-rule:nonzero;fill:rgb(67.058824%,16.470588%,14.509804%);fill-opacity:1;" d="M 54.609375 4.144531 C 54.609375 3.757812 54.335938 3.570312 53.917969 3.253906 C 53.515625 2.949219 52.824219 2.496094 52.414062 2.246094 C 52 2 51.332031 1.617188 50.871094 1.394531 C 50.40625 1.167969 50.035156 1.019531 49.808594 1.019531 C 49.585938 1.019531 49.429688 1.089844 49.320312 1.238281 C 49.207031 1.386719 49.140625 1.605469 49.097656 1.882812 C 49.054688 2.15625 49.03125 2.492188 49.019531 2.871094 C 49.007812 3.253906 49.007812 4.148438 49.007812 4.148438 C 49.007812 4.148438 49.007812 5.039062 49.019531 5.421875 C 49.03125 5.800781 49.054688 6.136719 49.097656 6.410156 C 49.140625 6.6875 49.207031 6.90625 49.320312 7.054688 C 49.429688 7.203125 49.585938 7.273438 49.808594 7.273438 C 50.035156 7.273438 50.40625 7.125 50.871094 6.898438 C 51.332031 6.675781 52 6.292969 52.414062 6.046875 C 52.824219 5.796875 53.515625 5.34375 53.917969 5.039062 C 54.335938 4.722656 54.609375 4.535156 54.609375 4.144531 Z M 54.609375 4.144531 "/>
<path style=" stroke:none;fill-rule:nonzero;fill:rgb(85.490196%,21.960784%,19.607843%);fill-opacity:1;" d="M 53.996094 3.675781 L 53.910156 3.675781 C 53.871094 3.675781 53.835938 3.707031 53.835938 3.75 L 53.835938 4.542969 C 53.835938 4.585938 53.871094 4.621094 53.910156 4.621094 L 53.996094 4.621094 C 54.035156 4.621094 54.070312 4.585938 54.070312 4.542969 L 54.070312 3.75 C 54.070312 3.707031 54.035156 3.675781 53.996094 3.675781 Z M 53.996094 3.675781 "/>
<path style=" stroke:none;fill-rule:nonzero;fill:rgb(85.490196%,21.960784%,19.607843%);fill-opacity:1;" d="M 51.34375 3.4375 L 51.429688 3.4375 C 51.472656 3.4375 51.503906 3.40625 51.503906 3.363281 L 51.503906 2.09375 C 51.503906 2.054688 51.472656 2.019531 51.429688 2.019531 L 51.34375 2.019531 C 51.304688 2.019531 51.269531 2.054688 51.269531 2.09375 L 51.269531 3.363281 C 51.269531 3.40625 51.304688 3.4375 51.34375 3.4375 Z M 51.34375 3.4375 "/>
<path style=" stroke:none;fill-rule:nonzero;fill:rgb(85.490196%,21.960784%,19.607843%);fill-opacity:1;" d="M 52.128906 5.5625 L 52.042969 5.5625 C 52.003906 5.5625 51.972656 5.597656 51.972656 5.636719 L 51.972656 5.726562 C 51.972656 5.765625 52.003906 5.800781 52.042969 5.800781 L 52.128906 5.800781 C 52.171875 5.800781 52.203125 5.765625 52.203125 5.726562 L 52.203125 5.636719 C 52.203125 5.597656 52.171875 5.5625 52.128906 5.5625 Z M 52.128906 5.5625 "/>
<path style=" stroke:none;fill-rule:nonzero;fill:rgb(85.490196%,21.960784%,19.607843%);fill-opacity:1;" d="M 49.480469 2.964844 L 50.5 2.964844 C 50.539062 2.964844 50.570312 2.933594 50.570312 2.890625 L 50.570312 2.492188 L 50.964844 2.492188 C 51.003906 2.492188 51.039062 2.460938 51.039062 2.417969 L 51.039062 1.859375 C 51.039062 1.816406 51.003906 1.785156 50.964844 1.785156 L 50.878906 1.785156 C 50.835938 1.785156 50.804688 1.816406 50.804688 1.859375 L 50.804688 2.257812 L 50.570312 2.257812 L 50.570312 1.621094 C 50.570312 1.582031 50.539062 1.546875 50.5 1.546875 L 49.945312 1.546875 C 49.90625 1.546875 49.871094 1.582031 49.871094 1.621094 L 49.871094 2.417969 C 49.871094 2.460938 49.90625 2.492188 49.945312 2.492188 L 50.335938 2.492188 L 50.335938 2.730469 L 49.636719 2.730469 L 49.636719 1.859375 C 49.636719 1.816406 49.605469 1.785156 49.566406 1.785156 L 49.476562 1.785156 C 49.4375 1.785156 49.40625 1.816406 49.40625 1.859375 L 49.40625 2.890625 C 49.40625 2.933594 49.4375 2.964844 49.480469 2.964844 Z M 50.339844 2.257812 L 50.105469 2.257812 L 50.105469 1.785156 L 50.339844 1.785156 Z M 50.339844 2.257812 "/>
<path style=" stroke:none;fill-rule:nonzero;fill:rgb(85.490196%,21.960784%,19.607843%);fill-opacity:1;" d="M 53.53125 3.4375 L 53.445312 3.4375 C 53.402344 3.4375 53.371094 3.472656 53.371094 3.511719 L 53.371094 4.621094 L 52.976562 4.621094 C 52.9375 4.621094 52.902344 4.652344 52.902344 4.691406 L 52.902344 5.089844 L 52.671875 5.089844 L 52.671875 4.691406 C 52.671875 4.652344 52.636719 4.617188 52.597656 4.617188 L 51.8125 4.617188 C 51.769531 4.617188 51.738281 4.652344 51.738281 4.691406 L 51.738281 4.78125 C 51.738281 4.820312 51.769531 4.855469 51.8125 4.855469 L 52.4375 4.855469 L 52.4375 5.09375 L 51.503906 5.09375 L 51.503906 4.382812 L 52.128906 4.382812 C 52.171875 4.382812 52.203125 4.347656 52.203125 4.308594 L 52.203125 4.222656 C 52.203125 4.179688 52.171875 4.148438 52.128906 4.148438 L 51.34375 4.148438 C 51.304688 4.148438 51.269531 4.179688 51.269531 4.222656 L 51.269531 5.253906 C 51.269531 5.292969 51.304688 5.328125 51.34375 5.328125 L 52.4375 5.328125 L 52.4375 5.488281 C 52.4375 5.53125 52.46875 5.5625 52.511719 5.5625 L 52.597656 5.5625 C 52.636719 5.5625 52.671875 5.53125 52.671875 5.488281 L 52.671875 5.328125 L 53.0625 5.328125 C 53.105469 5.328125 53.136719 5.292969 53.136719 5.253906 L 53.136719 4.855469 L 53.53125 4.855469 C 53.570312 4.855469 53.605469 4.820312 53.605469 4.78125 L 53.605469 3.511719 C 53.605469 3.472656 53.570312 3.4375 53.53125 3.4375 Z M 53.53125 3.4375 "/>
<path style=" stroke:none;fill-rule:nonzero;fill:rgb(85.490196%,21.960784%,19.607843%);fill-opacity:1;" d="M 51.664062 5.5625 L 51.109375 5.5625 C 51.070312 5.5625 51.039062 5.597656 51.039062 5.636719 L 51.039062 6.035156 L 49.636719 6.035156 L 49.636719 5.800781 L 50.730469 5.800781 C 50.773438 5.800781 50.804688 5.765625 50.804688 5.726562 L 50.804688 5.636719 C 50.804688 5.597656 50.773438 5.5625 50.730469 5.5625 L 49.476562 5.5625 C 49.4375 5.5625 49.40625 5.597656 49.40625 5.636719 L 49.40625 6.199219 C 49.40625 6.238281 49.4375 6.273438 49.476562 6.273438 L 51.195312 6.273438 C 51.238281 6.273438 51.269531 6.238281 51.269531 6.199219 L 51.269531 5.800781 L 51.503906 5.800781 L 51.503906 5.960938 C 51.503906 6.003906 51.535156 6.035156 51.578125 6.035156 L 51.664062 6.035156 C 51.703125 6.035156 51.738281 6.003906 51.738281 5.960938 L 51.738281 5.636719 C 51.738281 5.597656 51.703125 5.5625 51.664062 5.5625 Z M 51.664062 5.5625 "/>
<path style=" stroke:none;fill-rule:nonzero;fill:rgb(85.490196%,21.960784%,19.607843%);fill-opacity:1;" d="M 49.796875 6.507812 L 49.714844 6.507812 C 49.671875 6.507812 49.636719 6.542969 49.636719 6.585938 L 49.636719 6.667969 C 49.636719 6.710938 49.671875 6.746094 49.714844 6.746094 L 49.796875 6.746094 C 49.839844 6.746094 49.871094 6.710938 49.871094 6.667969 L 49.871094 6.585938 C 49.871094 6.542969 49.839844 6.507812 49.796875 6.507812 Z M 49.796875 6.507812 "/>
<path style=" stroke:none;fill-rule:nonzero;fill:rgb(85.490196%,21.960784%,19.607843%);fill-opacity:1;" d="M 50.261719 6.507812 L 50.179688 6.507812 C 50.140625 6.507812 50.105469 6.542969 50.105469 6.585938 L 50.105469 6.667969 C 50.105469 6.710938 50.140625 6.746094 50.179688 6.746094 L 50.261719 6.746094 C 50.304688 6.746094 50.339844 6.710938 50.339844 6.667969 L 50.339844 6.585938 C 50.339844 6.542969 50.304688 6.507812 50.261719 6.507812 Z M 50.261719 6.507812 "/>
<path style=" stroke:none;fill-rule:nonzero;fill:rgb(85.490196%,21.960784%,19.607843%);fill-opacity:1;" d="M 49.480469 5.089844 C 49.4375 5.089844 49.40625 5.125 49.40625 5.167969 L 49.40625 5.25 C 49.40625 5.292969 49.4375 5.328125 49.480469 5.328125 L 49.5625 5.328125 C 49.605469 5.328125 49.636719 5.292969 49.636719 5.25 L 49.636719 5.167969 C 49.636719 5.125 49.605469 5.089844 49.5625 5.089844 Z M 49.480469 5.089844 "/>
<path style=" stroke:none;fill-rule:nonzero;fill:rgb(85.490196%,21.960784%,19.607843%);fill-opacity:1;" d="M 49.945312 5.089844 C 49.90625 5.089844 49.871094 5.125 49.871094 5.167969 L 49.871094 5.25 C 49.871094 5.292969 49.90625 5.328125 49.945312 5.328125 L 50.03125 5.328125 C 50.070312 5.328125 50.105469 5.292969 50.105469 5.25 L 50.105469 5.167969 C 50.105469 5.125 50.070312 5.089844 50.03125 5.089844 Z M 49.945312 5.089844 "/>
<path style=" stroke:none;fill-rule:nonzero;fill:rgb(85.490196%,21.960784%,19.607843%);fill-opacity:1;" d="M 50.339844 5.167969 L 50.339844 5.25 C 50.339844 5.292969 50.371094 5.328125 50.414062 5.328125 L 50.964844 5.328125 C 51.003906 5.328125 51.039062 5.292969 51.039062 5.253906 L 51.039062 4.222656 C 51.039062 4.179688 51.007812 4.148438 50.964844 4.148438 L 50.878906 4.148438 C 50.839844 4.148438 50.804688 4.179688 50.804688 4.222656 L 50.804688 5.09375 L 50.414062 5.09375 C 50.371094 5.089844 50.339844 5.125 50.339844 5.167969 Z M 50.339844 5.167969 "/>
<path style=" stroke:none;fill-rule:nonzero;fill:rgb(85.490196%,21.960784%,19.607843%);fill-opacity:1;" d="M 52.511719 4.144531 C 52.472656 4.144531 52.4375 4.179688 52.4375 4.222656 L 52.4375 4.308594 C 52.4375 4.347656 52.472656 4.382812 52.511719 4.382812 L 52.59375 4.382812 C 52.636719 4.382812 52.671875 4.347656 52.671875 4.308594 L 52.671875 4.222656 C 52.671875 4.179688 52.636719 4.144531 52.59375 4.144531 Z M 52.511719 4.144531 "/>
<path style=" stroke:none;fill-rule:nonzero;fill:rgb(85.490196%,21.960784%,19.607843%);fill-opacity:1;" d="M 52.277344 2.730469 L 52.363281 2.730469 C 52.402344 2.730469 52.4375 2.695312 52.4375 2.652344 L 52.4375 2.570312 C 52.4375 2.527344 52.402344 2.492188 52.363281 2.492188 L 52.277344 2.492188 C 52.238281 2.492188 52.203125 2.527344 52.203125 2.570312 L 52.203125 2.652344 C 52.203125 2.695312 52.238281 2.730469 52.277344 2.730469 Z M 52.277344 2.730469 "/>
<path style=" stroke:none;fill-rule:nonzero;fill:rgb(85.490196%,21.960784%,19.607843%);fill-opacity:1;" d="M 50.960938 2.730469 L 50.878906 2.730469 C 50.839844 2.730469 50.804688 2.765625 50.804688 2.804688 L 50.804688 2.890625 C 50.804688 2.929688 50.839844 2.964844 50.878906 2.964844 L 50.960938 2.964844 C 51.003906 2.964844 51.039062 2.929688 51.039062 2.890625 L 51.039062 2.804688 C 51.039062 2.761719 51.003906 2.730469 50.960938 2.730469 Z M 50.960938 2.730469 "/>
<path style=" stroke:none;fill-rule:nonzero;fill:rgb(85.490196%,21.960784%,19.607843%);fill-opacity:1;" d="M 50.496094 3.675781 L 50.414062 3.675781 C 50.371094 3.675781 50.339844 3.707031 50.339844 3.75 L 50.339844 3.835938 C 50.339844 3.875 50.371094 3.910156 50.414062 3.910156 L 50.496094 3.910156 C 50.539062 3.910156 50.570312 3.875 50.570312 3.835938 L 50.570312 3.75 C 50.570312 3.707031 50.539062 3.675781 50.496094 3.675781 Z M 50.496094 3.675781 "/>
<path style=" stroke:none;fill-rule:nonzero;fill:rgb(85.490196%,21.960784%,19.607843%);fill-opacity:1;" d="M 53.0625 4.144531 L 52.980469 4.144531 C 52.9375 4.144531 52.902344 4.179688 52.902344 4.222656 L 52.902344 4.304688 C 52.902344 4.347656 52.9375 4.382812 52.980469 4.382812 L 53.0625 4.382812 C 53.105469 4.382812 53.136719 4.347656 53.136719 4.304688 L 53.136719 4.222656 C 53.136719 4.179688 53.105469 4.144531 53.0625 4.144531 Z M 53.0625 4.144531 "/>
<path style=" stroke:none;fill-rule:nonzero;fill:rgb(85.490196%,21.960784%,19.607843%);fill-opacity:1;" d="M 49.480469 4.855469 L 50.5 4.855469 C 50.539062 4.855469 50.570312 4.820312 50.570312 4.78125 L 50.570312 4.222656 C 50.570312 4.179688 50.539062 4.148438 50.5 4.148438 L 50.105469 4.148438 L 50.105469 3.4375 L 50.804688 3.4375 L 50.804688 3.835938 C 50.804688 3.875 50.839844 3.910156 50.878906 3.910156 L 53.0625 3.910156 C 53.105469 3.910156 53.136719 3.875 53.136719 3.835938 L 53.136719 3.039062 C 53.136719 3 53.105469 2.964844 53.0625 2.964844 L 52.511719 2.964844 C 52.472656 2.964844 52.4375 3 52.4375 3.039062 L 52.4375 3.203125 L 51.96875 3.203125 L 51.96875 2.332031 C 51.96875 2.289062 51.9375 2.257812 51.898438 2.257812 L 51.808594 2.257812 C 51.769531 2.257812 51.738281 2.289062 51.738281 2.332031 L 51.738281 3.675781 L 51.039062 3.675781 L 51.039062 3.277344 C 51.039062 3.234375 51.003906 3.203125 50.964844 3.203125 L 49.945312 3.203125 C 49.902344 3.203125 49.871094 3.234375 49.871094 3.277344 L 49.871094 4.308594 C 49.871094 4.347656 49.90625 4.382812 49.945312 4.382812 L 50.335938 4.382812 L 50.335938 4.617188 L 49.636719 4.617188 L 49.636719 3.277344 C 49.636719 3.234375 49.605469 3.203125 49.566406 3.203125 L 49.476562 3.203125 C 49.4375 3.203125 49.40625 3.234375 49.40625 3.277344 L 49.40625 4.78125 C 49.40625 4.820312 49.4375 4.855469 49.480469 4.855469 Z M 51.972656 3.4375 L 52.671875 3.4375 L 52.671875 3.203125 L 52.902344 3.203125 L 52.902344 3.675781 L 51.972656 3.675781 Z M 51.972656 3.4375 "/>
<path style=" stroke:none;fill-rule:nonzero;fill:rgb(16.078431%,21.960784%,25.490196%);fill-opacity:1;" d="M 47.207031 2.34375 C 47.179688 2.34375 47.148438 2.335938 47.148438 2.320312 L 47.148438 2.128906 C 47.148438 2.117188 47.179688 2.109375 47.207031 2.109375 L 47.378906 2.109375 C 47.433594 2.109375 47.449219 2.105469 47.449219 2.046875 L 47.449219 1.753906 C 47.449219 1.679688 47.449219 1.59375 47.445312 1.507812 C 47.445312 1.484375 47.460938 1.472656 47.484375 1.472656 L 47.636719 1.472656 C 47.664062 1.472656 47.675781 1.484375 47.675781 1.507812 C 47.679688 1.585938 47.679688 1.644531 47.679688 1.695312 L 47.679688 1.941406 C 47.679688 2.097656 47.679688 2.203125 47.671875 2.269531 C 47.667969 2.292969 47.660156 2.3125 47.628906 2.324219 C 47.578125 2.339844 47.433594 2.34375 47.335938 2.34375 Z M 47.3125 2.546875 C 47.3125 2.523438 47.332031 2.503906 47.355469 2.503906 L 47.496094 2.503906 C 47.519531 2.503906 47.539062 2.523438 47.539062 2.546875 L 47.539062 2.695312 C 47.539062 2.714844 47.519531 2.734375 47.496094 2.734375 L 47.355469 2.734375 C 47.332031 2.734375 47.3125 2.714844 47.3125 2.695312 Z M 46.539062 2.34375 C 46.511719 2.34375 46.480469 2.335938 46.480469 2.320312 L 46.480469 2.128906 C 46.480469 2.117188 46.511719 2.109375 46.539062 2.109375 L 46.710938 2.109375 C 46.75 2.109375 46.816406 2.101562 46.816406 2.042969 L 46.816406 1.511719 C 46.816406 1.492188 46.828125 1.476562 46.851562 1.476562 L 47.011719 1.476562 C 47.03125 1.476562 47.046875 1.492188 47.046875 1.511719 L 47.046875 2.078125 C 47.058594 2.101562 47.132812 2.109375 47.164062 2.109375 L 47.207031 2.109375 L 47.207031 2.34375 L 47.1875 2.34375 C 47.09375 2.34375 46.992188 2.332031 46.925781 2.28125 C 46.859375 2.328125 46.753906 2.34375 46.675781 2.34375 Z M 46.8125 1.164062 C 46.8125 1.140625 46.835938 1.121094 46.859375 1.121094 L 47 1.121094 C 47.023438 1.121094 47.042969 1.140625 47.042969 1.164062 L 47.042969 1.308594 C 47.042969 1.328125 47.023438 1.347656 47 1.347656 L 46.859375 1.347656 C 46.832031 1.347656 46.816406 1.328125 46.816406 1.308594 L 46.816406 1.164062 Z M 45.234375 1.761719 C 45.253906 1.761719 45.265625 1.773438 45.265625 1.796875 C 45.265625 1.824219 45.265625 1.867188 45.265625 1.878906 C 45.265625 2.054688 45.351562 2.109375 45.59375 2.109375 L 46.035156 2.109375 C 46.078125 2.109375 46.136719 2.101562 46.136719 2.042969 L 46.136719 0.980469 C 46.136719 0.957031 46.15625 0.941406 46.175781 0.941406 L 46.339844 0.941406 C 46.359375 0.941406 46.375 0.957031 46.375 0.980469 L 46.375 2.078125 C 46.390625 2.101562 46.457031 2.109375 46.488281 2.109375 L 46.535156 2.109375 L 46.535156 2.34375 L 46.515625 2.34375 C 46.441406 2.34375 46.335938 2.335938 46.265625 2.292969 C 46.199219 2.335938 46.09375 2.34375 46.011719 2.34375 L 45.554688 2.34375 C 45.164062 2.34375 45.050781 2.199219 45.050781 1.941406 C 45.050781 1.917969 45.050781 1.835938 45.0625 1.796875 C 45.066406 1.769531 45.074219 1.761719 45.097656 1.761719 Z M 45.496094 1.613281 C 45.496094 1.597656 45.507812 1.589844 45.527344 1.589844 L 45.554688 1.589844 C 45.539062 1.566406 45.53125 1.519531 45.53125 1.484375 C 45.53125 1.367188 45.605469 1.300781 45.738281 1.300781 C 45.757812 1.300781 45.792969 1.304688 45.828125 1.3125 C 45.84375 1.316406 45.851562 1.328125 45.851562 1.34375 L 45.851562 1.410156 C 45.851562 1.425781 45.84375 1.433594 45.828125 1.433594 C 45.816406 1.433594 45.769531 1.429688 45.757812 1.429688 C 45.699219 1.429688 45.675781 1.460938 45.675781 1.507812 C 45.675781 1.546875 45.691406 1.578125 45.703125 1.585938 L 45.839844 1.585938 C 45.859375 1.585938 45.871094 1.59375 45.871094 1.609375 L 45.871094 1.683594 C 45.871094 1.703125 45.859375 1.710938 45.839844 1.710938 L 45.527344 1.710938 C 45.503906 1.710938 45.496094 1.703125 45.496094 1.683594 Z M 44.210938 1.078125 C 44.1875 1.078125 44.179688 1.074219 44.179688 1.058594 L 44.179688 1.003906 C 44.179688 0.992188 44.1875 0.984375 44.210938 0.984375 L 44.242188 0.984375 C 44.222656 0.957031 44.214844 0.917969 44.214844 0.878906 C 44.214844 0.777344 44.273438 0.726562 44.398438 0.726562 C 44.417969 0.726562 44.453125 0.726562 44.484375 0.738281 C 44.496094 0.738281 44.503906 0.746094 44.503906 0.753906 L 44.503906 0.804688 C 44.503906 0.816406 44.496094 0.824219 44.480469 0.824219 L 44.414062 0.824219 C 44.351562 0.824219 44.324219 0.84375 44.324219 0.898438 C 44.324219 0.9375 44.339844 0.96875 44.363281 0.984375 L 44.488281 0.984375 C 44.511719 0.984375 44.519531 0.988281 44.519531 1.003906 L 44.519531 1.058594 C 44.519531 1.074219 44.511719 1.078125 44.488281 1.078125 Z M 44.242188 1.234375 C 44.242188 1.214844 44.257812 1.195312 44.277344 1.195312 L 44.441406 1.195312 C 44.464844 1.195312 44.476562 1.214844 44.476562 1.234375 L 44.476562 2.304688 C 44.476562 2.324219 44.464844 2.34375 44.441406 2.34375 L 44.277344 2.34375 C 44.253906 2.34375 44.242188 2.324219 44.242188 2.304688 Z M 43.429688 2.34375 C 43.402344 2.34375 43.371094 2.335938 43.371094 2.320312 L 43.371094 2.128906 C 43.371094 2.117188 43.40625 2.109375 43.429688 2.109375 L 43.617188 2.109375 C 43.675781 2.109375 43.691406 2.105469 43.691406 2.046875 L 43.691406 1.757812 C 43.691406 1.683594 43.691406 1.601562 43.6875 1.511719 C 43.6875 1.492188 43.703125 1.476562 43.726562 1.476562 L 43.878906 1.476562 C 43.90625 1.476562 43.917969 1.492188 43.917969 1.511719 C 43.921875 1.589844 43.921875 1.648438 43.921875 1.703125 L 43.921875 1.941406 C 43.921875 2.097656 43.921875 2.203125 43.914062 2.269531 C 43.910156 2.292969 43.902344 2.3125 43.875 2.324219 C 43.820312 2.339844 43.679688 2.34375 43.578125 2.34375 Z M 43.554688 2.546875 C 43.554688 2.523438 43.574219 2.503906 43.597656 2.503906 L 43.738281 2.503906 C 43.761719 2.503906 43.78125 2.523438 43.78125 2.546875 L 43.78125 2.695312 C 43.78125 2.714844 43.761719 2.734375 43.738281 2.734375 L 43.597656 2.734375 C 43.574219 2.734375 43.554688 2.714844 43.554688 2.695312 Z M 42.558594 2.605469 C 42.558594 2.585938 42.566406 2.574219 42.589844 2.574219 L 42.753906 2.574219 C 42.945312 2.574219 43.046875 2.539062 43.046875 2.398438 L 43.046875 2.34375 L 42.914062 2.34375 C 42.648438 2.34375 42.488281 2.207031 42.488281 1.9375 L 42.488281 1.902344 C 42.488281 1.613281 42.664062 1.445312 42.976562 1.445312 C 43.070312 1.445312 43.195312 1.457031 43.246094 1.476562 C 43.269531 1.488281 43.277344 1.492188 43.277344 1.511719 L 43.277344 2.109375 L 43.4375 2.109375 L 43.4375 2.34375 L 43.273438 2.34375 L 43.273438 2.40625 C 43.25 2.710938 43.054688 2.785156 42.804688 2.785156 C 42.761719 2.785156 42.613281 2.785156 42.585938 2.773438 C 42.5625 2.769531 42.558594 2.757812 42.558594 2.738281 Z M 42.71875 1.910156 C 42.71875 2.046875 42.773438 2.113281 42.914062 2.113281 L 43.050781 2.113281 L 43.050781 1.664062 C 43.015625 1.660156 42.976562 1.660156 42.9375 1.660156 C 42.800781 1.660156 42.71875 1.742188 42.71875 1.882812 Z M 41.527344 1.070312 C 41.527344 1.046875 41.546875 1.027344 41.570312 1.027344 L 41.714844 1.027344 C 41.734375 1.027344 41.753906 1.046875 41.753906 1.070312 L 41.753906 1.214844 C 41.753906 1.238281 41.734375 1.257812 41.710938 1.257812 L 41.570312 1.257812 C 41.542969 1.257812 41.527344 1.238281 41.527344 1.214844 Z M 40.746094 2.140625 C 40.746094 2.121094 40.765625 2.109375 40.785156 2.109375 L 41.019531 2.109375 L 41.019531 0.980469 C 41.019531 0.957031 41.035156 0.941406 41.058594 0.941406 L 41.222656 0.941406 C 41.242188 0.941406 41.257812 0.957031 41.257812 0.980469 L 41.257812 1.542969 C 41.386719 1.453125 41.574219 1.441406 41.660156 1.441406 C 41.972656 1.441406 42.171875 1.570312 42.171875 1.9375 L 42.171875 2.011719 C 42.171875 2.09375 42.164062 2.207031 42.148438 2.28125 C 42.140625 2.304688 42.128906 2.328125 42.089844 2.335938 C 42.019531 2.34375 41.75 2.34375 41.648438 2.34375 L 40.785156 2.34375 C 40.765625 2.34375 40.75 2.332031 40.75 2.3125 L 40.75 2.140625 Z M 41.90625 2.113281 C 41.9375 2.113281 41.941406 2.09375 41.941406 1.992188 L 41.941406 1.964844 C 41.941406 1.738281 41.835938 1.667969 41.597656 1.667969 C 41.515625 1.667969 41.347656 1.675781 41.257812 1.746094 L 41.257812 2.109375 C 41.3125 2.113281 41.382812 2.113281 41.476562 2.113281 Z M 39.09375 1.957031 C 39.09375 1.902344 39.101562 1.792969 39.117188 1.714844 C 39.121094 1.6875 39.132812 1.675781 39.152344 1.675781 L 39.292969 1.675781 C 39.316406 1.675781 39.328125 1.6875 39.324219 1.710938 C 39.320312 1.765625 39.316406 1.824219 39.316406 1.859375 C 39.316406 2.117188 39.355469 2.308594 39.683594 2.308594 C 39.75 2.308594 39.800781 2.304688 39.851562 2.296875 C 39.859375 2.175781 39.859375 2.117188 39.859375 2.019531 L 39.859375 1.855469 C 39.859375 1.574219 40.027344 1.445312 40.328125 1.445312 C 40.421875 1.445312 40.523438 1.457031 40.589844 1.46875 C 40.609375 1.476562 40.621094 1.484375 40.621094 1.507812 L 40.621094 2.042969 C 40.621094 2.097656 40.640625 2.109375 40.703125 2.109375 L 40.789062 2.109375 L 40.789062 2.34375 L 40.644531 2.34375 C 40.476562 2.34375 40.390625 2.304688 40.390625 2.113281 L 40.390625 1.667969 C 40.351562 1.664062 40.335938 1.660156 40.300781 1.660156 C 40.160156 1.660156 40.089844 1.714844 40.089844 1.878906 L 40.089844 2.179688 C 40.089844 2.269531 40.089844 2.382812 40.082031 2.472656 C 40.082031 2.492188 40.070312 2.507812 40.042969 2.511719 C 39.941406 2.527344 39.8125 2.539062 39.679688 2.539062 C 39.261719 2.539062 39.09375 2.339844 39.09375 1.957031 Z M 39.386719 2.707031 C 39.386719 2.683594 39.40625 2.667969 39.429688 2.667969 L 39.550781 2.667969 C 39.570312 2.667969 39.59375 2.683594 39.59375 2.707031 L 39.59375 2.835938 C 39.59375 2.855469 39.570312 2.875 39.550781 2.875 L 39.429688 2.875 C 39.40625 2.875 39.386719 2.855469 39.386719 2.835938 Z M 39.726562 2.707031 C 39.726562 2.683594 39.746094 2.667969 39.765625 2.667969 L 39.890625 2.667969 C 39.910156 2.667969 39.929688 2.683594 39.929688 2.707031 L 39.929688 2.835938 C 39.929688 2.855469 39.910156 2.875 39.890625 2.875 L 39.765625 2.875 C 39.746094 2.875 39.726562 2.855469 39.726562 2.835938 Z M 38.289062 0.976562 C 38.289062 0.957031 38.304688 0.941406 38.328125 0.941406 L 38.492188 0.941406 C 38.511719 0.941406 38.527344 0.957031 38.527344 0.976562 L 38.527344 2.304688 C 38.527344 2.324219 38.511719 2.34375 38.492188 2.34375 L 38.328125 2.34375 C 38.304688 2.34375 38.289062 2.324219 38.289062 2.304688 Z M 37.527344 2.128906 C 37.527344 2.117188 37.5625 2.109375 37.589844 2.109375 L 37.75 2.109375 C 37.808594 2.109375 37.820312 2.105469 37.820312 2.046875 L 37.820312 0.980469 C 37.820312 0.957031 37.835938 0.941406 37.855469 0.941406 L 38.023438 0.941406 C 38.042969 0.941406 38.058594 0.957031 38.058594 0.980469 L 38.058594 2.050781 C 38.058594 2.117188 38.054688 2.203125 38.050781 2.269531 C 38.042969 2.292969 38.035156 2.3125 38.007812 2.324219 C 37.953125 2.339844 37.804688 2.34375 37.707031 2.34375 L 37.589844 2.34375 C 37.5625 2.34375 37.53125 2.335938 37.53125 2.324219 L 37.53125 2.128906 Z M 36.863281 2.128906 C 36.863281 2.117188 36.894531 2.109375 36.921875 2.109375 L 37.089844 2.109375 C 37.132812 2.109375 37.199219 2.101562 37.199219 2.042969 L 37.199219 1.511719 C 37.199219 1.492188 37.210938 1.476562 37.234375 1.476562 L 37.390625 1.476562 C 37.414062 1.476562 37.425781 1.492188 37.425781 1.511719 L 37.425781 2.078125 C 37.441406 2.101562 37.511719 2.109375 37.546875 2.109375 L 37.589844 2.109375 L 37.589844 2.34375 L 37.566406 2.34375 C 37.472656 2.34375 37.371094 2.332031 37.308594 2.28125 C 37.242188 2.328125 37.136719 2.34375 37.058594 2.34375 L 36.921875 2.34375 C 36.894531 2.34375 36.863281 2.335938 36.863281 2.320312 Z M 37.035156 1.160156 C 37.035156 1.136719 37.054688 1.121094 37.078125 1.121094 L 37.203125 1.121094 C 37.226562 1.121094 37.25 1.136719 37.25 1.160156 L 37.25 1.304688 C 37.25 1.328125 37.226562 1.347656 37.203125 1.347656 L 37.078125 1.347656 C 37.054688 1.347656 37.035156 1.328125 37.035156 1.304688 Z M 37.371094 1.160156 C 37.371094 1.136719 37.394531 1.121094 37.414062 1.121094 L 37.542969 1.121094 C 37.566406 1.121094 37.582031 1.136719 37.582031 1.160156 L 37.582031 1.304688 C 37.582031 1.328125 37.566406 1.347656 37.542969 1.347656 L 37.414062 1.347656 C 37.394531 1.347656 37.371094 1.328125 37.371094 1.304688 Z M 35.816406 2.34375 C 35.789062 2.34375 35.757812 2.332031 35.757812 2.320312 L 35.757812 2.128906 C 35.757812 2.117188 35.789062 2.109375 35.816406 2.109375 L 36.609375 2.109375 L 36.523438 1.914062 C 36.453125 1.757812 36.332031 1.660156 36.097656 1.660156 C 36.082031 1.660156 36.027344 1.660156 36 1.664062 C 35.976562 1.664062 35.960938 1.65625 35.960938 1.632812 L 35.960938 1.496094 C 35.960938 1.480469 35.976562 1.46875 36 1.460938 C 36.058594 1.449219 36.113281 1.445312 36.175781 1.445312 C 36.441406 1.445312 36.632812 1.550781 36.78125 1.886719 C 36.820312 1.976562 36.851562 2.0625 36.867188 2.082031 C 36.878906 2.101562 36.886719 2.109375 36.90625 2.109375 L 36.925781 2.109375 L 36.925781 2.34375 Z M 36.199219 2.546875 C 36.199219 2.523438 36.222656 2.503906 36.242188 2.503906 L 36.382812 2.503906 C 36.40625 2.503906 36.429688 2.523438 36.429688 2.546875 L 36.429688 2.695312 C 36.429688 2.714844 36.40625 2.734375 36.382812 2.734375 L 36.242188 2.734375 C 36.222656 2.734375 36.199219 2.714844 36.199219 2.695312 Z M 35.417969 0.976562 C 35.417969 0.957031 35.433594 0.941406 35.457031 0.941406 L 35.621094 0.941406 C 35.644531 0.941406 35.65625 0.957031 35.65625 0.976562 L 35.65625 2.015625 C 35.65625 2.097656 35.691406 2.109375 35.757812 2.109375 L 35.816406 2.109375 L 35.816406 2.34375 L 35.691406 2.34375 C 35.523438 2.34375 35.417969 2.300781 35.417969 2.085938 Z M 34.667969 2.605469 C 34.667969 2.585938 34.679688 2.578125 34.699219 2.578125 L 34.734375 2.578125 C 34.871094 2.578125 34.921875 2.566406 34.921875 2.414062 L 34.921875 1.511719 C 34.921875 1.492188 34.9375 1.476562 34.957031 1.476562 L 35.117188 1.476562 C 35.136719 1.476562 35.152344 1.492188 35.152344 1.511719 L 35.152344 2.386719 C 35.152344 2.480469 35.144531 2.566406 35.109375 2.640625 C 35.054688 2.742188 34.960938 2.78125 34.808594 2.78125 C 34.789062 2.78125 34.722656 2.78125 34.691406 2.777344 C 34.675781 2.773438 34.667969 2.761719 34.667969 2.742188 Z M 33.0625 1.957031 C 33.0625 1.902344 33.074219 1.792969 33.089844 1.714844 C 33.09375 1.683594 33.101562 1.675781 33.128906 1.675781 L 33.269531 1.675781 C 33.289062 1.675781 33.296875 1.6875 33.296875 1.710938 C 33.292969 1.765625 33.289062 1.824219 33.289062 1.859375 C 33.289062 2.117188 33.328125 2.308594 33.65625 2.308594 C 33.722656 2.308594 33.773438 2.304688 33.824219 2.296875 C 33.832031 2.175781 33.832031 2.117188 33.832031 2.019531 L 33.832031 1.855469 C 33.832031 1.574219 33.996094 1.445312 34.308594 1.445312 C 34.394531 1.445312 34.5 1.457031 34.570312 1.46875 C 34.589844 1.476562 34.601562 1.484375 34.601562 1.507812 L 34.601562 2.304688 C 34.601562 2.328125 34.585938 2.34375 34.5625 2.34375 L 34.402344 2.34375 C 34.382812 2.34375 34.367188 2.328125 34.367188 2.304688 L 34.367188 1.667969 C 34.324219 1.664062 34.308594 1.660156 34.273438 1.660156 C 34.132812 1.660156 34.0625 1.714844 34.0625 1.878906 L 34.0625 2.183594 C 34.0625 2.269531 34.0625 2.382812 34.054688 2.472656 C 34.054688 2.492188 34.042969 2.507812 34.015625 2.511719 C 33.914062 2.527344 33.78125 2.539062 33.652344 2.539062 C 33.234375 2.539062 33.0625 2.339844 33.0625 1.957031 Z M 33.359375 2.707031 C 33.359375 2.683594 33.378906 2.667969 33.402344 2.667969 L 33.519531 2.667969 C 33.542969 2.667969 33.5625 2.683594 33.5625 2.707031 L 33.5625 2.835938 C 33.5625 2.855469 33.542969 2.875 33.519531 2.875 L 33.402344 2.875 C 33.378906 2.875 33.359375 2.855469 33.359375 2.835938 Z M 33.695312 2.707031 C 33.695312 2.683594 33.714844 2.667969 33.738281 2.667969 L 33.863281 2.667969 C 33.882812 2.667969 33.902344 2.683594 33.902344 2.707031 L 33.902344 2.835938 C 33.902344 2.855469 33.882812 2.875 33.863281 2.875 L 33.738281 2.875 C 33.714844 2.875 33.695312 2.855469 33.695312 2.835938 Z M 38.488281 3.316406 C 38.488281 3.316406 37.410156 3.316406 37.347656 3.316406 C 37.3125 3.316406 37.214844 3.351562 37.214844 3.503906 L 37.214844 7.054688 C 37.214844 7.222656 37.347656 7.222656 37.347656 7.222656 L 38.488281 7.222656 C 39.636719 7.222656 40.433594 6.492188 40.433594 5.28125 C 40.433594 4.042969 39.636719 3.316406 38.488281 3.316406 Z M 38.417969 6.746094 L 37.734375 6.746094 L 37.734375 3.792969 L 38.417969 3.792969 C 39.300781 3.792969 39.851562 4.324219 39.851562 5.28125 C 39.851562 6.210938 39.300781 6.746094 38.417969 6.746094 Z M 44.363281 6.378906 C 44.320312 6.296875 44.25 6.332031 44.207031 6.378906 C 44.042969 6.527344 43.65625 6.773438 43.132812 6.773438 C 42.285156 6.773438 41.699219 6.085938 41.699219 5.242188 C 41.699219 4.4375 42.253906 3.769531 43.101562 3.769531 C 43.554688 3.769531 43.878906 3.945312 44.070312 4.078125 C 44.207031 4.160156 44.238281 4.160156 44.320312 4.078125 C 44.363281 3.992188 44.429688 3.878906 44.429688 3.878906 C 44.429688 3.878906 44.511719 3.769531 44.429688 3.710938 C 44.238281 3.585938 43.792969 3.269531 43.101562 3.269531 C 41.976562 3.269531 41.148438 4.125 41.148438 5.242188 C 41.148438 6.378906 41.941406 7.265625 43.101562 7.265625 C 43.847656 7.265625 44.320312 6.90625 44.511719 6.746094 C 44.597656 6.691406 44.5625 6.640625 44.527344 6.574219 C 44.511719 6.546875 44.429688 6.449219 44.363281 6.378906 Z M 47.257812 5.160156 C 47.570312 5.03125 47.761719 4.71875 47.761719 4.324219 C 47.761719 3.679688 47.292969 3.316406 46.625 3.316406 C 46.625 3.316406 45.621094 3.316406 45.453125 3.316406 C 45.3125 3.316406 45.277344 3.46875 45.277344 3.503906 L 45.277344 7.054688 C 45.277344 7.105469 45.277344 7.222656 45.453125 7.222656 C 45.621094 7.222656 46.65625 7.222656 46.65625 7.222656 C 47.339844 7.222656 47.894531 6.859375 47.894531 6.101562 C 47.894531 5.691406 47.660156 5.296875 47.257812 5.160156 Z M 45.832031 3.792969 L 46.625 3.792969 C 46.984375 3.792969 47.210938 4.042969 47.210938 4.390625 C 47.210938 4.71875 46.984375 4.960938 46.625 4.960938 L 45.832031 4.960938 Z M 46.691406 6.746094 L 45.832031 6.746094 L 45.832031 5.410156 L 46.691406 5.410156 C 47.097656 5.410156 47.339844 5.691406 47.339844 6.085938 C 47.339844 6.492188 47.097656 6.746094 46.691406 6.746094 Z M 35.171875 3.503906 C 35.117188 3.382812 35.09375 3.316406 34.925781 3.316406 L 34.601562 3.316406 C 34.457031 3.316406 34.40625 3.382812 34.359375 3.503906 C 34.324219 3.597656 32.976562 7.105469 32.976562 7.105469 C 32.976562 7.105469 32.976562 7.222656 33.105469 7.222656 L 33.453125 7.222656 C 33.527344 7.222656 33.5625 7.140625 33.5625 7.140625 L 33.9375 6.101562 L 35.597656 6.101562 L 35.96875 7.140625 C 35.96875 7.140625 36 7.222656 36.078125 7.222656 L 36.40625 7.222656 C 36.546875 7.222656 36.546875 7.105469 36.546875 7.105469 C 36.546875 7.105469 35.210938 3.597656 35.171875 3.503906 Z M 34.101562 5.660156 L 34.488281 4.570312 L 34.765625 3.863281 L 35.039062 4.570312 L 35.414062 5.660156 Z M 40.417969 2.546875 C 40.417969 2.523438 40.4375 2.503906 40.460938 2.503906 L 40.601562 2.503906 C 40.625 2.503906 40.644531 2.523438 40.644531 2.546875 L 40.644531 2.695312 C 40.644531 2.714844 40.625 2.734375 40.601562 2.734375 L 40.460938 2.734375 C 40.4375 2.734375 40.417969 2.714844 40.417969 2.695312 Z M 40.417969 2.546875 "/>
<path style=" stroke:none;fill-rule:nonzero;fill:rgb(16.078431%,21.960784%,25.490196%);fill-opacity:1;" d="M 1.347656 3.101562 L 0.390625 3.101562 L 0.390625 2.734375 L 2.726562 2.734375 L 2.726562 3.101562 L 1.761719 3.101562 L 1.761719 6.066406 L 1.351562 6.066406 L 1.351562 3.101562 Z M 1.347656 3.101562 "/>
<path style=" stroke:none;fill-rule:nonzero;fill:rgb(16.078431%,21.960784%,25.490196%);fill-opacity:1;" d="M 5.554688 4.367188 C 5.554688 5.515625 4.894531 6.121094 4.089844 6.121094 C 3.253906 6.121094 2.671875 5.441406 2.671875 4.433594 C 2.671875 3.375 3.292969 2.683594 4.136719 2.683594 C 5 2.683594 5.554688 3.378906 5.554688 4.367188 Z M 3.105469 4.421875 C 3.105469 5.132812 3.472656 5.769531 4.113281 5.769531 C 4.757812 5.769531 5.125 5.144531 5.125 4.386719 C 5.125 3.726562 4.796875 3.03125 4.117188 3.03125 C 3.441406 3.03125 3.105469 3.691406 3.105469 4.421875 Z M 3.105469 4.421875 "/>
<path style=" stroke:none;fill-rule:nonzero;fill:rgb(16.078431%,21.960784%,25.490196%);fill-opacity:1;" d="M 6.398438 2.738281 L 6.398438 4.707031 C 6.398438 5.453125 6.714844 5.769531 7.132812 5.769531 C 7.601562 5.769531 7.902344 5.445312 7.902344 4.707031 L 7.902344 2.738281 L 8.316406 2.738281 L 8.316406 4.679688 C 8.316406 5.703125 7.804688 6.121094 7.121094 6.121094 C 6.472656 6.121094 5.988281 5.730469 5.988281 4.699219 L 5.988281 2.738281 Z M 6.398438 2.738281 "/>
<path style=" stroke:none;fill-rule:nonzero;fill:rgb(16.078431%,21.960784%,25.490196%);fill-opacity:1;" d="M 11.136719 5.957031 C 10.984375 6.039062 10.6875 6.117188 10.300781 6.117188 C 9.410156 6.117188 8.742188 5.523438 8.742188 4.429688 C 8.742188 3.386719 9.410156 2.683594 10.390625 2.683594 C 10.785156 2.683594 11.03125 2.769531 11.140625 2.828125 L 11.042969 3.179688 C 10.886719 3.101562 10.667969 3.042969 10.40625 3.042969 C 9.664062 3.042969 9.171875 3.542969 9.171875 4.417969 C 9.171875 5.230469 9.617188 5.753906 10.386719 5.753906 C 10.632812 5.753906 10.886719 5.703125 11.050781 5.617188 Z M 11.136719 5.957031 "/>
<path style=" stroke:none;fill-rule:nonzero;fill:rgb(16.078431%,21.960784%,25.490196%);fill-opacity:1;" d="M 11.960938 2.738281 L 11.960938 4.128906 L 13.488281 4.128906 L 13.488281 2.738281 L 13.898438 2.738281 L 13.898438 6.066406 L 13.488281 6.066406 L 13.488281 4.503906 L 11.960938 4.503906 L 11.960938 6.066406 L 11.550781 6.066406 L 11.550781 2.738281 Z M 11.960938 2.738281 "/>
<path style=" stroke:none;fill-rule:nonzero;fill:rgb(16.078431%,21.960784%,25.490196%);fill-opacity:1;" d="M 14.511719 2.777344 C 14.707031 2.742188 14.964844 2.710938 15.292969 2.710938 C 15.699219 2.710938 15.992188 2.8125 16.179688 2.988281 C 16.351562 3.148438 16.457031 3.386719 16.457031 3.683594 C 16.457031 3.988281 16.371094 4.222656 16.210938 4.398438 C 15.996094 4.640625 15.644531 4.761719 15.246094 4.761719 C 15.125 4.761719 15.015625 4.757812 14.921875 4.734375 L 14.921875 6.066406 L 14.511719 6.066406 Z M 14.921875 4.382812 C 15.007812 4.40625 15.121094 4.417969 15.257812 4.417969 C 15.75 4.417969 16.046875 4.164062 16.046875 3.703125 C 16.046875 3.265625 15.753906 3.050781 15.304688 3.050781 C 15.125 3.050781 14.988281 3.066406 14.917969 3.085938 L 14.917969 4.382812 Z M 14.921875 4.382812 "/>
<path style=" stroke:none;fill-rule:nonzero;fill:rgb(16.078431%,21.960784%,25.490196%);fill-opacity:1;" d="M 19.609375 4.367188 C 19.609375 5.515625 18.949219 6.121094 18.144531 6.121094 C 17.308594 6.121094 16.722656 5.441406 16.722656 4.433594 C 16.722656 3.375 17.347656 2.683594 18.191406 2.683594 C 19.050781 2.683594 19.609375 3.378906 19.609375 4.367188 Z M 17.160156 4.421875 C 17.160156 5.132812 17.523438 5.769531 18.164062 5.769531 C 18.8125 5.769531 19.179688 5.144531 19.179688 4.386719 C 19.179688 3.726562 18.851562 3.03125 18.171875 3.03125 C 17.496094 3.03125 17.160156 3.691406 17.160156 4.421875 Z M 17.160156 4.421875 "/>
<path style=" stroke:none;fill-rule:nonzero;fill:rgb(16.078431%,21.960784%,25.490196%);fill-opacity:1;" d="M 20.453125 2.738281 L 20.453125 6.066406 L 20.042969 6.066406 L 20.042969 2.738281 Z M 20.453125 2.738281 "/>
<path style=" stroke:none;fill-rule:nonzero;fill:rgb(16.078431%,21.960784%,25.490196%);fill-opacity:1;" d="M 21.070312 6.066406 L 21.070312 2.738281 L 21.515625 2.738281 L 22.527344 4.421875 C 22.761719 4.8125 22.945312 5.164062 23.09375 5.503906 L 23.101562 5.5 C 23.066406 5.054688 23.058594 4.648438 23.058594 4.128906 L 23.058594 2.738281 L 23.441406 2.738281 L 23.441406 6.066406 L 23.027344 6.066406 L 22.027344 4.378906 C 21.804688 4.007812 21.59375 3.625 21.4375 3.265625 L 21.421875 3.269531 C 21.445312 3.691406 21.453125 4.089844 21.453125 4.644531 L 21.453125 6.066406 Z M 21.070312 6.066406 "/>
<path style=" stroke:none;fill-rule:nonzero;fill:rgb(16.078431%,21.960784%,25.490196%);fill-opacity:1;" d="M 24.660156 3.101562 L 23.699219 3.101562 L 23.699219 2.734375 L 26.035156 2.734375 L 26.035156 3.101562 L 25.070312 3.101562 L 25.070312 6.066406 L 24.660156 6.066406 Z M 24.660156 3.101562 "/>
<path style=" stroke:none;fill-rule:nonzero;fill:rgb(16.078431%,21.960784%,25.490196%);fill-opacity:1;" d="M 26.207031 5.542969 C 26.390625 5.660156 26.660156 5.761719 26.941406 5.761719 C 27.355469 5.761719 27.601562 5.527344 27.601562 5.191406 C 27.601562 4.882812 27.429688 4.703125 27.003906 4.53125 C 26.488281 4.339844 26.171875 4.058594 26.171875 3.585938 C 26.171875 3.066406 26.578125 2.683594 27.191406 2.683594 C 27.515625 2.683594 27.75 2.761719 27.890625 2.847656 L 27.777344 3.195312 C 27.675781 3.136719 27.464844 3.039062 27.179688 3.039062 C 26.746094 3.039062 26.582031 3.3125 26.582031 3.539062 C 26.582031 3.847656 26.777344 4.003906 27.210938 4.179688 C 27.746094 4.398438 28.015625 4.667969 28.015625 5.160156 C 28.015625 5.671875 27.65625 6.117188 26.910156 6.117188 C 26.605469 6.117188 26.273438 6.023438 26.105469 5.90625 Z M 26.207031 5.542969 "/>
</g>
</svg>
